<svg xmlns="http://www.w3.org/2000/svg" xmlns:xlink="http://www.w3.org/1999/xlink" width="940" height="754.72"><rect width="940" height="754.72" rx="5" ry="5" class="a"/><svg y="0%" x="0%"><circle cx="20" cy="20" r="6" fill="#ff5f58"/><circle cx="40" cy="20" r="6" fill="#ffbd2e"/><circle cx="60" cy="20" r="6" fill="#18c132"/></svg><svg height="694.72" viewBox="0 0 90 69.472" width="900" x="15" xmlns="http://www.w3.org/2000/svg" xmlns:xlink="http://www.w3.org/1999/xlink" y="50"><style>@keyframes m{0%{transform:translateX(-90px)}6.9%{transform:translateX(-180px)}13.8%{transform:translateX(-360px)}14.7%{transform:translateX(-450px)}15.5%{transform:translateX(-540px)}16.4%{transform:translateX(-630px)}33.6%{transform:translateX(-810px)}40.5%{transform:translateX(-900px)}44%{transform:translateX(-990px)}44.8%{transform:translateX(-1080px)}45.7%{transform:translateX(-1170px)}46.6%{transform:translateX(-1260px)}47.4%{transform:translateX(-1350px)}48.3%{transform:translateX(-1440px)}49.1%{transform:translateX(-1530px)}50%{transform:translateX(-1620px)}50.9%{transform:translateX(-1710px)}71.6%{transform:translateX(-1800px)}75%{transform:translateX(-1890px)}75.9%{transform:translateX(-1980px)}76.7%{transform:translateX(-2070px)}77.6%{transform:translateX(-2160px)}78.4%{transform:translateX(-2250px)}79.3%{transform:translateX(-2340px)}80.2%{transform:translateX(-2430px)}81%{transform:translateX(-2520px)}81.9%{transform:translateX(-2610px)}82.8%{transform:translateX(-2700px)}to{transform:translateX(-2790px)}}.a{fill:#282d35}.f{fill:#b9c0cb}.f,.h,.j,.p{white-space:pre}.h{fill:#b9bfca;font-weight:700}.j,.p{fill:#dbab79}.p{fill:#a8cc8c}</style><g font-family="Monaco,Consolas,Menlo,'Bitstream Vera Sans Mono','Powerline Symbols',monospace" font-size="1.67"><defs><symbol id="1"><text x="2.004" y="1.67" class="f">#</text><text x="4.008" y="1.67" class="f">Lakebridge</text><text x="15.03" y="1.67" class="f">Reconcile</text><text x="25.05" y="1.67" class="f">skill</text><text x="31.062" y="1.67" class="f">demo</text></symbol><symbol id="2"><text x="2.004" y="1.67" class="f">#</text><text x="4.008" y="1.67" class="f">Generating</text><text x="15.03" y="1.67" class="f">YAML</text><text x="20.04" y="1.67" class="f">config</text><text x="27.054" y="1.67" class="f">for</text><text x="31.062" y="1.67" class="f">a</text><text x="33.066" y="1.67" class="f">Snowflake</text><text x="43.086" y="1.67" class="f">→</text><text x="45.09" y="1.67" class="f">Databricks</text><text x="56.112" y="1.67" class="f">migration</text></symbol><symbol id="3"><text y="1.67" style="white-space:pre" fill="#66c2cd" font-weight="700">❯</text><text x="2.004" y="1.67" class="h">Generate</text><text x="11.022" y="1.67" class="h">reconcile</text><text x="21.042" y="1.67" class="h">YAML</text><text x="26.052" y="1.67" class="h">configs</text><text x="34.068" y="1.67" class="h">for</text><text x="38.076" y="1.67" class="h">Snowflake</text><text x="48.096" y="1.67" class="h">(PROD_DB.PUBLIC)</text></symbol><symbol id="4"><text x="2.004" y="1.67" class="h">→</text><text x="4.008" y="1.67" class="h">Databricks</text><text x="15.03" y="1.67" class="h">(main.migrated).</text><text x="32.064" y="1.67" class="h">Tables:</text><text x="40.08" y="1.67" class="h">customers,</text><text x="51.102" y="1.67" class="h">orders,</text></symbol><symbol id="5"><text x="2.004" y="1.67" class="h">order_items,</text><text x="15.03" y="1.67" class="h">products.</text><text x="25.05" y="1.67" class="h">report_type</text><text x="37.074" y="1.67" class="h">&apos;all&apos;.</text></symbol><symbol id="6"><text y="1.67" style="white-space:pre" fill="#d290e4">⏺</text><text x="2.004" y="1.67" class="f">Generating</text><text x="13.026" y="1.67" class="f">reconcile.yml</text><text x="27.054" y="1.67" class="f">and</text><text x="31.062" y="1.67" class="f">recon_config.yml</text><text x="48.096" y="1.67" class="f">…</text></symbol><symbol id="7"><text x="2.004" y="1.67" class="f">#</text><text x="4.008" y="1.67" class="f">reconcile.yml</text><text x="18.036" y="1.67" class="f">—</text><text x="20.04" y="1.67" class="f">source,</text><text x="28.056" y="1.67" class="f">target,</text><text x="36.072" y="1.67" class="f">and</text><text x="40.08" y="1.67" class="f">report</text><text x="47.094" y="1.67" class="f">settings</text></symbol><symbol id="8"><text x="4.008" y="1.67" class="j">version:</text><text x="13.026" y="1.67" class="j">1</text></symbol><symbol id="9"><text x="4.008" y="1.67" class="j">data_source:</text><text x="17.034" y="1.67" class="j">snowflake</text></symbol><symbol id="10"><text x="4.008" y="1.67" class="j">report_type:</text><text x="17.034" y="1.67" class="j">all</text></symbol><symbol id="11"><text x="4.008" y="1.67" class="j">secret_scope:</text><text x="18.036" y="1.67" class="j">lakebridge_snowflake</text></symbol><symbol id="12"><text x="4.008" y="1.67" class="j">database_config:</text></symbol><symbol id="13"><text x="6.012" y="1.67" class="j">source_schema:</text><text x="21.042" y="1.67" class="j">PUBLIC</text></symbol><symbol id="14"><text x="6.012" y="1.67" class="j">target_catalog:</text><text x="22.044" y="1.67" class="j">main</text></symbol><symbol id="15"><text x="6.012" y="1.67" class="j">target_schema:</text><text x="21.042" y="1.67" class="j">migrated</text></symbol><symbol id="16"><text x="2.004" y="1.67" class="f">#</text><text x="4.008" y="1.67" class="f">recon_config.yml</text><text x="21.042" y="1.67" class="f">—</text><text x="23.046" y="1.67" class="f">per-table</text><text x="33.066" y="1.67" class="f">reconciliation</text><text x="48.096" y="1.67" class="f">rules</text></symbol><symbol id="17"><text x="4.008" y="1.67" class="j">version:</text><text x="13.026" y="1.67" class="j">2</text></symbol><symbol id="18"><text x="4.008" y="1.67" class="j">tables:</text></symbol><symbol id="19"><text x="6.012" y="1.67" class="j">-</text><text x="8.016" y="1.67" class="j">source_name:</text><text x="21.042" y="1.67" class="j">customers</text></symbol><symbol id="20"><text x="8.016" y="1.67" class="j">target_name:</text><text x="21.042" y="1.67" class="j">customers</text></symbol><symbol id="21"><text x="8.016" y="1.67" class="j">join_columns:</text><text x="22.044" y="1.67" class="j">[customer_id]</text></symbol><symbol id="22"><text x="6.012" y="1.67" class="j">-</text><text x="8.016" y="1.67" class="j">source_name:</text><text x="21.042" y="1.67" class="j">orders</text></symbol><symbol id="23"><text x="8.016" y="1.67" class="j">target_name:</text><text x="21.042" y="1.67" class="j">orders</text></symbol><symbol id="24"><text x="8.016" y="1.67" class="j">join_columns:</text><text x="22.044" y="1.67" class="j">[order_id]</text></symbol><symbol id="25"><text x="6.012" y="1.67" class="j">#</text><text x="8.016" y="1.67" class="j">…</text><text x="10.02" y="1.67" class="j">2</text><text x="12.024" y="1.67" class="j">more</text><text x="17.034" y="1.67" class="j">table(s)</text></symbol><symbol id="a"><path fill="transparent" d="M0 0h90v32H0z"/></symbol><symbol id="b"><path fill="#6f7683" d="M0 0h1.102v2.171H0z"/></symbol></defs><path class="a" d="M0 0h90v69.472H0z"/><g style="animation-duration:5.8s;animation-iteration-count:infinite;animation-name:m;animation-timing-function:steps(1,end)"><svg width="2880"><svg><use xlink:href="#a"/><use xlink:href="#b" x="-.004"/></svg><svg x="90"><use xlink:href="#a"/><use xlink:href="#b" x="-.004" y="2.146"/><use xlink:href="#1"/></svg><svg x="180"><use xlink:href="#a"/><use xlink:href="#b" x="-.004" y="4.317"/><use xlink:href="#1"/><use xlink:href="#2" y="2.171"/></svg><svg x="270"><use xlink:href="#a"/><use xlink:href="#b" x="-.004" y="6.488"/><use xlink:href="#1"/><use xlink:href="#2" y="2.171"/></svg><svg x="360"><use xlink:href="#a"/><use xlink:href="#b" x="-.004" y="8.659"/><use xlink:href="#1"/><use xlink:href="#2" y="2.171"/><use xlink:href="#3" y="6.513"/></svg><svg x="450"><use xlink:href="#a"/><use xlink:href="#b" x="-.004" y="10.83"/><use xlink:href="#1"/><use xlink:href="#2" y="2.171"/><use xlink:href="#3" y="6.513"/><use xlink:href="#4" y="8.684"/></svg><svg x="540"><use xlink:href="#a"/><use xlink:href="#b" x="-.004" y="13.001"/><use xlink:href="#1"/><use xlink:href="#2" y="2.171"/><use xlink:href="#3" y="6.513"/><use xlink:href="#4" y="8.684"/><use xlink:href="#5" y="10.855"/></svg><svg x="630"><use xlink:href="#a"/><use xlink:href="#b" x="-.004" y="15.172"/><use xlink:href="#1"/><use xlink:href="#2" y="2.171"/><use xlink:href="#3" y="6.513"/><use xlink:href="#4" y="8.684"/><use xlink:href="#5" y="10.855"/></svg><svg x="720"><use xlink:href="#a"/><use xlink:href="#b" x="-.004" y="17.343"/><use xlink:href="#1"/><use xlink:href="#2" y="2.171"/><use xlink:href="#3" y="6.513"/><use xlink:href="#4" y="8.684"/><use xlink:href="#5" y="10.855"/><use xlink:href="#6" y="15.197"/></svg><svg x="810"><use xlink:href="#a"/><use xlink:href="#b" x="-.004" y="19.514"/><use xlink:href="#1"/><use xlink:href="#2" y="2.171"/><use xlink:href="#3" y="6.513"/><use xlink:href="#4" y="8.684"/><use xlink:href="#5" y="10.855"/><use xlink:href="#6" y="15.197"/></svg><svg x="900"><use xlink:href="#a"/><use xlink:href="#b" x="-.004" y="21.685"/><use xlink:href="#1"/><use xlink:href="#2" y="2.171"/><use xlink:href="#3" y="6.513"/><use xlink:href="#4" y="8.684"/><use xlink:href="#5" y="10.855"/><use xlink:href="#6" y="15.197"/><use xlink:href="#7" y="19.539"/></svg><svg x="990"><use xlink:href="#a"/><use xlink:href="#b" x="-.004" y="23.856"/><use xlink:href="#1"/><use xlink:href="#2" y="2.171"/><use xlink:href="#3" y="6.513"/><use xlink:href="#4" y="8.684"/><use xlink:href="#5" y="10.855"/><use xlink:href="#6" y="15.197"/><use xlink:href="#7" y="19.539"/><use xlink:href="#8" y="21.71"/></svg><svg x="1080"><use xlink:href="#a"/><use xlink:href="#b" x="-.004" y="26.027"/><use xlink:href="#1"/><use xlink:href="#2" y="2.171"/><use xlink:href="#3" y="6.513"/><use xlink:href="#4" y="8.684"/><use xlink:href="#5" y="10.855"/><use xlink:href="#6" y="15.197"/><use xlink:href="#7" y="19.539"/><use xlink:href="#8" y="21.71"/><use xlink:href="#9" y="23.881"/></svg><svg x="1170"><use xlink:href="#a"/><use xlink:href="#b" x="-.004" y="28.198"/><use xlink:href="#1"/><use xlink:href="#2" y="2.171"/><use xlink:href="#3" y="6.513"/><use xlink:href="#4" y="8.684"/><use xlink:href="#5" y="10.855"/><use xlink:href="#6" y="15.197"/><use xlink:href="#7" y="19.539"/><use xlink:href="#8" y="21.71"/><use xlink:href="#9" y="23.881"/><use xlink:href="#10" y="26.052"/></svg><svg x="1260"><use xlink:href="#a"/><use xlink:href="#b" x="-.004" y="30.369"/><use xlink:href="#1"/><use xlink:href="#2" y="2.171"/><use xlink:href="#3" y="6.513"/><use xlink:href="#4" y="8.684"/><use xlink:href="#5" y="10.855"/><use xlink:href="#6" y="15.197"/><use xlink:href="#7" y="19.539"/><use xlink:href="#8" y="21.71"/><use xlink:href="#9" y="23.881"/><use xlink:href="#10" y="26.052"/><use xlink:href="#11" y="28.223"/></svg><svg x="1350"><use xlink:href="#a"/><use xlink:href="#b" x="-.004" y="32.54"/><use xlink:href="#1"/><use xlink:href="#2" y="2.171"/><use xlink:href="#3" y="6.513"/><use xlink:href="#4" y="8.684"/><use xlink:href="#5" y="10.855"/><use xlink:href="#6" y="15.197"/><use xlink:href="#7" y="19.539"/><use xlink:href="#8" y="21.71"/><use xlink:href="#9" y="23.881"/><use xlink:href="#10" y="26.052"/><use xlink:href="#11" y="28.223"/><use xlink:href="#12" y="30.394"/></svg><svg x="1440"><use xlink:href="#a"/><use xlink:href="#b" x="-.004" y="34.711"/><use xlink:href="#1"/><use xlink:href="#2" y="2.171"/><use xlink:href="#3" y="6.513"/><use xlink:href="#4" y="8.684"/><use xlink:href="#5" y="10.855"/><use xlink:href="#6" y="15.197"/><use xlink:href="#7" y="19.539"/><use xlink:href="#8" y="21.71"/><use xlink:href="#9" y="23.881"/><use xlink:href="#10" y="26.052"/><use xlink:href="#11" y="28.223"/><use xlink:href="#12" y="30.394"/><use xlink:href="#13" y="32.565"/></svg><svg x="1530"><use xlink:href="#a"/><use xlink:href="#b" x="-.004" y="36.882"/><use xlink:href="#1"/><use xlink:href="#2" y="2.171"/><use xlink:href="#3" y="6.513"/><use xlink:href="#4" y="8.684"/><use xlink:href="#5" y="10.855"/><use xlink:href="#6" y="15.197"/><use xlink:href="#7" y="19.539"/><use xlink:href="#8" y="21.71"/><use xlink:href="#9" y="23.881"/><use xlink:href="#10" y="26.052"/><use xlink:href="#11" y="28.223"/><use xlink:href="#12" y="30.394"/><use xlink:href="#13" y="32.565"/><use xlink:href="#14" y="34.736"/></svg><svg x="1620"><use xlink:href="#a"/><use xlink:href="#b" x="-.004" y="39.053"/><use xlink:href="#1"/><use xlink:href="#2" y="2.171"/><use xlink:href="#3" y="6.513"/><use xlink:href="#4" y="8.684"/><use xlink:href="#5" y="10.855"/><use xlink:href="#6" y="15.197"/><use xlink:href="#7" y="19.539"/><use xlink:href="#8" y="21.71"/><use xlink:href="#9" y="23.881"/><use xlink:href="#10" y="26.052"/><use xlink:href="#11" y="28.223"/><use xlink:href="#12" y="30.394"/><use xlink:href="#13" y="32.565"/><use xlink:href="#14" y="34.736"/><use xlink:href="#15" y="36.907"/></svg><svg x="1710"><use xlink:href="#a"/><use xlink:href="#b" x="-.004" y="41.224"/><use xlink:href="#1"/><use xlink:href="#2" y="2.171"/><use xlink:href="#3" y="6.513"/><use xlink:href="#4" y="8.684"/><use xlink:href="#5" y="10.855"/><use xlink:href="#6" y="15.197"/><use xlink:href="#7" y="19.539"/><use xlink:href="#8" y="21.71"/><use xlink:href="#9" y="23.881"/><use xlink:href="#10" y="26.052"/><use xlink:href="#11" y="28.223"/><use xlink:href="#12" y="30.394"/><use xlink:href="#13" y="32.565"/><use xlink:href="#14" y="34.736"/><use xlink:href="#15" y="36.907"/></svg><svg x="1800"><use xlink:href="#a"/><use xlink:href="#b" x="-.004" y="43.395"/><use xlink:href="#1"/><use xlink:href="#2" y="2.171"/><use xlink:href="#3" y="6.513"/><use xlink:href="#4" y="8.684"/><use xlink:href="#5" y="10.855"/><use xlink:href="#6" y="15.197"/><use xlink:href="#7" y="19.539"/><use xlink:href="#8" y="21.71"/><use xlink:href="#9" y="23.881"/><use xlink:href="#10" y="26.052"/><use xlink:href="#11" y="28.223"/><use xlink:href="#12" y="30.394"/><use xlink:href="#13" y="32.565"/><use xlink:href="#14" y="34.736"/><use xlink:href="#15" y="36.907"/><use xlink:href="#16" y="41.249"/></svg><svg x="1890"><use xlink:href="#a"/><use xlink:href="#b" x="-.004" y="45.566"/><use xlink:href="#1"/><use xlink:href="#2" y="2.171"/><use xlink:href="#3" y="6.513"/><use xlink:href="#4" y="8.684"/><use xlink:href="#5" y="10.855"/><use xlink:href="#6" y="15.197"/><use xlink:href="#7" y="19.539"/><use xlink:href="#8" y="21.71"/><use xlink:href="#9" y="23.881"/><use xlink:href="#10" y="26.052"/><use xlink:href="#11" y="28.223"/><use xlink:href="#12" y="30.394"/><use xlink:href="#13" y="32.565"/><use xlink:href="#14" y="34.736"/><use xlink:href="#15" y="36.907"/><use xlink:href="#16" y="41.249"/><use xlink:href="#17" y="43.42"/></svg><svg x="1980"><use xlink:href="#a"/><use xlink:href="#b" x="-.004" y="47.737"/><use xlink:href="#1"/><use xlink:href="#2" y="2.171"/><use xlink:href="#3" y="6.513"/><use xlink:href="#4" y="8.684"/><use xlink:href="#5" y="10.855"/><use xlink:href="#6" y="15.197"/><use xlink:href="#7" y="19.539"/><use xlink:href="#8" y="21.71"/><use xlink:href="#9" y="23.881"/><use xlink:href="#10" y="26.052"/><use xlink:href="#11" y="28.223"/><use xlink:href="#12" y="30.394"/><use xlink:href="#13" y="32.565"/><use xlink:href="#14" y="34.736"/><use xlink:href="#15" y="36.907"/><use xlink:href="#16" y="41.249"/><use xlink:href="#17" y="43.42"/><use xlink:href="#18" y="45.591"/></svg><svg x="2070"><use xlink:href="#a"/><use xlink:href="#b" x="-.004" y="49.908"/><use xlink:href="#1"/><use xlink:href="#2" y="2.171"/><use xlink:href="#3" y="6.513"/><use xlink:href="#4" y="8.684"/><use xlink:href="#5" y="10.855"/><use xlink:href="#6" y="15.197"/><use xlink:href="#7" y="19.539"/><use xlink:href="#8" y="21.71"/><use xlink:href="#9" y="23.881"/><use xlink:href="#10" y="26.052"/><use xlink:href="#11" y="28.223"/><use xlink:href="#12" y="30.394"/><use xlink:href="#13" y="32.565"/><use xlink:href="#14" y="34.736"/><use xlink:href="#15" y="36.907"/><use xlink:href="#16" y="41.249"/><use xlink:href="#17" y="43.42"/><use xlink:href="#18" y="45.591"/><use xlink:href="#19" y="47.762"/></svg><svg x="2160"><use xlink:href="#a"/><use xlink:href="#b" x="-.004" y="52.079"/><use xlink:href="#1"/><use xlink:href="#2" y="2.171"/><use xlink:href="#3" y="6.513"/><use xlink:href="#4" y="8.684"/><use xlink:href="#5" y="10.855"/><use xlink:href="#6" y="15.197"/><use xlink:href="#7" y="19.539"/><use xlink:href="#8" y="21.71"/><use xlink:href="#9" y="23.881"/><use xlink:href="#10" y="26.052"/><use xlink:href="#11" y="28.223"/><use xlink:href="#12" y="30.394"/><use xlink:href="#13" y="32.565"/><use xlink:href="#14" y="34.736"/><use xlink:href="#15" y="36.907"/><use xlink:href="#16" y="41.249"/><use xlink:href="#17" y="43.42"/><use xlink:href="#18" y="45.591"/><use xlink:href="#19" y="47.762"/><use xlink:href="#20" y="49.933"/></svg><svg x="2250"><use xlink:href="#a"/><use xlink:href="#b" x="-.004" y="54.25"/><use xlink:href="#1"/><use xlink:href="#2" y="2.171"/><use xlink:href="#3" y="6.513"/><use xlink:href="#4" y="8.684"/><use xlink:href="#5" y="10.855"/><use xlink:href="#6" y="15.197"/><use xlink:href="#7" y="19.539"/><use xlink:href="#8" y="21.71"/><use xlink:href="#9" y="23.881"/><use xlink:href="#10" y="26.052"/><use xlink:href="#11" y="28.223"/><use xlink:href="#12" y="30.394"/><use xlink:href="#13" y="32.565"/><use xlink:href="#14" y="34.736"/><use xlink:href="#15" y="36.907"/><use xlink:href="#16" y="41.249"/><use xlink:href="#17" y="43.42"/><use xlink:href="#18" y="45.591"/><use xlink:href="#19" y="47.762"/><use xlink:href="#20" y="49.933"/><use xlink:href="#21" y="52.104"/></svg><svg x="2340"><use xlink:href="#a"/><use xlink:href="#b" x="-.004" y="56.421"/><use xlink:href="#1"/><use xlink:href="#2" y="2.171"/><use xlink:href="#3" y="6.513"/><use xlink:href="#4" y="8.684"/><use xlink:href="#5" y="10.855"/><use xlink:href="#6" y="15.197"/><use xlink:href="#7" y="19.539"/><use xlink:href="#8" y="21.71"/><use xlink:href="#9" y="23.881"/><use xlink:href="#10" y="26.052"/><use xlink:href="#11" y="28.223"/><use xlink:href="#12" y="30.394"/><use xlink:href="#13" y="32.565"/><use xlink:href="#14" y="34.736"/><use xlink:href="#15" y="36.907"/><use xlink:href="#16" y="41.249"/><use xlink:href="#17" y="43.42"/><use xlink:href="#18" y="45.591"/><use xlink:href="#19" y="47.762"/><use xlink:href="#20" y="49.933"/><use xlink:href="#21" y="52.104"/><use xlink:href="#22" y="54.275"/></svg><svg x="2430"><use xlink:href="#a"/><use xlink:href="#b" x="-.004" y="58.592"/><use xlink:href="#1"/><use xlink:href="#2" y="2.171"/><use xlink:href="#3" y="6.513"/><use xlink:href="#4" y="8.684"/><use xlink:href="#5" y="10.855"/><use xlink:href="#6" y="15.197"/><use xlink:href="#7" y="19.539"/><use xlink:href="#8" y="21.71"/><use xlink:href="#9" y="23.881"/><use xlink:href="#10" y="26.052"/><use xlink:href="#11" y="28.223"/><use xlink:href="#12" y="30.394"/><use xlink:href="#13" y="32.565"/><use xlink:href="#14" y="34.736"/><use xlink:href="#15" y="36.907"/><use xlink:href="#16" y="41.249"/><use xlink:href="#17" y="43.42"/><use xlink:href="#18" y="45.591"/><use xlink:href="#19" y="47.762"/><use xlink:href="#20" y="49.933"/><use xlink:href="#21" y="52.104"/><use xlink:href="#22" y="54.275"/><use xlink:href="#23" y="56.446"/></svg><svg x="2520"><use xlink:href="#a"/><use xlink:href="#b" x="-.004" y="60.763"/><use xlink:href="#1"/><use xlink:href="#2" y="2.171"/><use xlink:href="#3" y="6.513"/><use xlink:href="#4" y="8.684"/><use xlink:href="#5" y="10.855"/><use xlink:href="#6" y="15.197"/><use xlink:href="#7" y="19.539"/><use xlink:href="#8" y="21.71"/><use xlink:href="#9" y="23.881"/><use xlink:href="#10" y="26.052"/><use xlink:href="#11" y="28.223"/><use xlink:href="#12" y="30.394"/><use xlink:href="#13" y="32.565"/><use xlink:href="#14" y="34.736"/><use xlink:href="#15" y="36.907"/><use xlink:href="#16" y="41.249"/><use xlink:href="#17" y="43.42"/><use xlink:href="#18" y="45.591"/><use xlink:href="#19" y="47.762"/><use xlink:href="#20" y="49.933"/><use xlink:href="#21" y="52.104"/><use xlink:href="#22" y="54.275"/><use xlink:href="#23" y="56.446"/><use xlink:href="#24" y="58.617"/></svg><svg x="2610"><use xlink:href="#a"/><use xlink:href="#b" x="-.004" y="62.934"/><use xlink:href="#1"/><use xlink:href="#2" y="2.171"/><use xlink:href="#3" y="6.513"/><use xlink:href="#4" y="8.684"/><use xlink:href="#5" y="10.855"/><use xlink:href="#6" y="15.197"/><use xlink:href="#7" y="19.539"/><use xlink:href="#8" y="21.71"/><use xlink:href="#9" y="23.881"/><use xlink:href="#10" y="26.052"/><use xlink:href="#11" y="28.223"/><use xlink:href="#12" y="30.394"/><use xlink:href="#13" y="32.565"/><use xlink:href="#14" y="34.736"/><use xlink:href="#15" y="36.907"/><use xlink:href="#16" y="41.249"/><use xlink:href="#17" y="43.42"/><use xlink:href="#18" y="45.591"/><use xlink:href="#19" y="47.762"/><use xlink:href="#20" y="49.933"/><use xlink:href="#21" y="52.104"/><use xlink:href="#22" y="54.275"/><use xlink:href="#23" y="56.446"/><use xlink:href="#24" y="58.617"/><use xlink:href="#25" y="60.788"/></svg><svg x="2700"><use xlink:href="#a"/><use xlink:href="#b" x="-.004" y="65.105"/><use xlink:href="#1"/><use xlink:href="#2" y="2.171"/><use xlink:href="#3" y="6.513"/><use xlink:href="#4" y="8.684"/><use xlink:href="#5" y="10.855"/><use xlink:href="#6" y="15.197"/><use xlink:href="#7" y="19.539"/><use xlink:href="#8" y="21.71"/><use xlink:href="#9" y="23.881"/><use xlink:href="#10" y="26.052"/><use xlink:href="#11" y="28.223"/><use xlink:href="#12" y="30.394"/><use xlink:href="#13" y="32.565"/><use xlink:href="#14" y="34.736"/><use xlink:href="#15" y="36.907"/><use xlink:href="#16" y="41.249"/><use xlink:href="#17" y="43.42"/><use xlink:href="#18" y="45.591"/><use xlink:href="#19" y="47.762"/><use xlink:href="#20" y="49.933"/><use xlink:href="#21" y="52.104"/><use xlink:href="#22" y="54.275"/><use xlink:href="#23" y="56.446"/><use xlink:href="#24" y="58.617"/><use xlink:href="#25" y="60.788"/></svg><svg x="2790"><use xlink:href="#a"/><use xlink:href="#b" x="-.004" y="67.276"/><use xlink:href="#1"/><use xlink:href="#2" y="2.171"/><use xlink:href="#3" y="6.513"/><use xlink:href="#4" y="8.684"/><use xlink:href="#5" y="10.855"/><use xlink:href="#6" y="15.197"/><use xlink:href="#7" y="19.539"/><use xlink:href="#8" y="21.71"/><use xlink:href="#9" y="23.881"/><use xlink:href="#10" y="26.052"/><use xlink:href="#11" y="28.223"/><use xlink:href="#12" y="30.394"/><use xlink:href="#13" y="32.565"/><use xlink:href="#14" y="34.736"/><use xlink:href="#15" y="36.907"/><use xlink:href="#16" y="41.249"/><use xlink:href="#17" y="43.42"/><use xlink:href="#18" y="45.591"/><use xlink:href="#19" y="47.762"/><use xlink:href="#20" y="49.933"/><use xlink:href="#21" y="52.104"/><use xlink:href="#22" y="54.275"/><use xlink:href="#23" y="56.446"/><use xlink:href="#24" y="58.617"/><use xlink:href="#25" y="60.788"/><text x="2.004" y="66.8" style="white-space:pre" fill="#a8cc8c" font-weight="700">✓</text><text x="4.008" y="66.8" class="p">Valid</text><text x="10.02" y="66.8" class="p">configuration</text><text x="24.048" y="66.8" class="p">generated</text><text x="34.068" y="66.8" class="p">for</text><text x="38.076" y="66.8" class="p">4</text><text x="40.08" y="66.8" class="p">tables</text></svg></svg></g></g></svg></svg>